<svg width="18" height="18" viewBox="0 0 18 18" fill="none" xmlns="http://www.w3.org/2000/svg">
<path d="M6.34723 3.4234L4.66963 0.569683C4.34173 0.0119096 3.63019 -0.178659 3.09782 0.189304C2.05037 0.913293 0.489253 2.18341 0.100901 3.54136C-0.501944 5.64934 1.67124 10.6695 4.62584 13.6226C7.58051 16.5758 12.3471 18.4916 14.4562 17.8893C15.8147 17.5013 17.0858 15.9416 17.8104 14.8949C18.1788 14.3628 17.9882 13.6515 17.43 13.3237L14.5748 11.6469C14.0331 11.3288 13.3374 11.4858 12.9852 12.0058L12.2002 13.1643C11.8605 13.6657 11.201 13.8265 10.6935 13.4958C9.87612 12.9631 8.60386 12.04 7.27853 10.7153C5.95338 9.39085 5.02984 8.11939 4.49684 7.3024C4.16584 6.79503 4.32697 6.13571 4.82888 5.79626L5.98781 5.01245C6.50825 4.66046 6.66557 3.96492 6.34723 3.4234Z" fill="url(#paint0_linear_4_25)"/>
<defs>
<linearGradient id="paint0_linear_4_25" x1="9" y1="4.5" x2="9" y2="18" gradientUnits="userSpaceOnUse">
<stop stop-color="#25CAAB"/>
<stop offset="1" stop-color="#309D89"/>
</linearGradient>
</defs>
</svg>
